:FULLY-SPECIFIED
:DEGREES
1
root 0.228845 15.7679 -2.91896 133.576 -85.3292 -128.629
lowerback 4.47654 3.59802 0.111477
upperback -2.72617 4.87562 1.49254
thorax -5.45567 2.43183 1.03669
lowerneck -18.952 -0.83251 1.4236
upperneck 20.8619 -1.02492 -2.77198
head 9.72111 -0.734678 -1.3542
rclavicle -2.22639e-014 -2.18663e-015
rhumerus -15.5027 5.26229 -89.3768
rradius 43.1028
rwrist -8.56645
rhand -33.8713 -16.7786
rfingers 7.12502
rthumb -7.05533 -46.641
lclavicle -2.22639e-014 -2.18663e-015
lhumerus -40.5299 8.33153 87.3213
lradius 16.5126
lwrist -3.85599
lhand -27.806 16.1419
lfingers 7.12502
lthumb -1.19859 46.1183
rfemur 12.8058 3.58989 29.5133
rtibia 6.36111e-015
rfoot -8.15944 -6.22468
rtoes -17.5892
lfemur -33.0875 -10.3539 -12.2596
ltibia 24.2611
lfoot -12.5539 14.7601
ltoes -16.7141
2
root 0.22498 15.7714 -2.90169 136.751 -85.1853 -131.809
lowerback 4.45865 3.64148 0.0203305
upperback -2.66168 4.92632 1.47519
thorax -5.38523 2.46046 1.06797
lowerneck -18.9347 -0.768258 1.4609
upperneck 20.6827 -0.931265 -2.82789
head 9.65644 -0.693202 -1.36422
rclavicle -2.8625e-014 -7.30534e-015
rhumerus -15.4509 5.37325 -89.4278
rradius 43.212
rwrist -8.20273
rhand -33.5981 -16.8342
rfingers 7.12502
rthumb -6.79157 -46.7053
lclavicle -2.8625e-014 -7.30534e-015
lhumerus -40.4632 8.49533 87.2266
lradius 16.4588
lwrist -4.13822
lhand -27.7938 16.2212
lfingers 7.12502
lthumb -1.18677 46.1977
rfemur 13.4229 3.87293 29.3758
rtibia -1.27222e-014
rfoot -8.19148 -6.316
rtoes -18.1453
lfemur -33.1376 -11.7951 -11.6548
ltibia 23.4436
lfoot -13.2117 15.9066
ltoes -16.612
3
root 0.224336 15.767 -2.88584 139.602 -84.93 -134.598
lowerback 4.44288 3.71247 0.0029968
upperback -2.66283 5.01887 1.44844
thorax -5.37874 2.50654 1.04234
lowerneck -18.9551 -0.728174 1.49045
upperneck 20.6274 -0.884434 -2.82447
head 9.64173 -0.668152 -1.3609
rclavicle -7.15625e-015 9.44227e-016
rhumerus -15.4825 5.80874 -89.6151
rradius 43.3412
rwrist -9.357
rhand -34.3252 -16.5622
rfingers 7.12502
rthumb -7.49348 -46.4095
lclavicle -7.15625e-015 9.44227e-016
lhumerus -40.4188 8.3626 87.2656
lradius 16.3997
lwrist -4.04304
lhand -27.874 16.1962
lfingers 7.12502
lthumb -1.26423 46.1722
rfemur 13.9503 4.23897 29.3314
rtibia 1.59028e-014
rfoot -8.12086 -6.40121
rtoes -18.9154
lfemur -33.3004 -12.8809 -11.0834
ltibia 23.0482
lfoot -13.9124 16.9293
ltoes -16.7596
4
root 0.220394 15.7619 -2.86637 142.299 -84.8018 -137.257
lowerback 4.43796 3.73239 -0.10488
upperback -2.6473 5.03681 1.40917
thorax -5.3659 2.5189 1.06063
lowerneck -18.9478 -0.655886 1.5586
upperneck 20.5122 -0.7891 -2.88316
head 9.60158 -0.624353 -1.37794
rclavicle -5.00937e-014 -5.26779e-015
rhumerus -15.4868 5.804 -89.6821
rradius 43.1686
rwrist -8.50538
rhand -33.7542 -16.8507
rfingers 7.12502
rthumb -6.94231 -46.7169
lclavicle -5.00937e-014 -5.26779e-015
lhumerus -40.3538 8.19331 87.3594
lradius 16.3601
lwrist -4.12
lhand -28.1127 15.9702
lfingers 7.12502
lthumb -1.49476 45.9447
rfemur 14.5155 4.51001 29.1597
rtibia 3.81667e-014
rfoot -8.09445 -6.40333
rtoes -19.4498
lfemur -33.1294 -13.4845 -10.9421
ltibia 22.7019
lfoot -14.3158 17.1939
ltoes -16.4196
5
root 0.213685 15.7538 -2.84492 145.063 -84.6089 -139.969
lowerback 4.36551 3.76464 -0.163817
upperback -2.63046 5.07355 1.36608
thorax -5.30907 2.53885 1.05104
lowerneck -18.9028 -0.595922 1.54901
upperneck 20.3929 -0.711037 -2.84545
head 9.55365 -0.583321 -1.35048
rclavicle -2.62396e-014 4.82674e-015
rhumerus -15.5545 5.94856 -89.8238
rradius 42.9777
rwrist -8.41367
rhand -33.5943 -16.7333
rfingers 7.12502
rthumb -6.78799 -46.6045
lclavicle -2.62396e-014 4.82674e-015
lhumerus -40.2622 8.11691 87.3891
lradius 16.3758
lwrist -4.19639
lhand -27.8555 16.2483
lfingers 7.12502
lthumb -1.24636 46.2244
rfemur 15.0721 4.83703 29.0032
rtibia 6.04305e-014
rfoot -7.95233 -6.46576
rtoes -20.5169
lfemur -32.8962 -13.5101 -11.0529
ltibia 22.6444
lfoot -14.2961 16.9046
ltoes -16.705
6
root 0.205684 15.742 -2.82478 147.459 -84.3888 -142.411
lowerback 4.42477 3.80748 -0.261772
upperback -2.60801 5.12437 1.35045
thorax -5.32789 2.56729 1.08093
lowerneck -18.9081 -0.53104 1.60538
upperneck 20.349 -0.621697 -2.9112
head 9.54105 -0.544762 -1.37009
rclavicle 4.77083e-015 3.93842e-015
rhumerus -15.6351 5.94981 -89.9315
rradius 42.6483
rwrist -8.02487
rhand -33.4196 -16.8035
rfingers 7.12502
rthumb -6.61931 -46.68
lclavicle 4.77083e-015 3.93842e-015
lhumerus -40.1724 7.88764 87.5405
lradius 16.3806
lwrist -4.22368
lhand -28.3346 16.0265
lfingers 7.12502
lthumb -1.70904 45.9994
rfemur 15.7497 5.14684 28.8656
rtibia -2.22639e-014
rfoot -7.81604 -6.4372
rtoes -21.2789
lfemur -32.3888 -12.94 -11.4558
ltibia 22.7615
lfoot -13.8542 16.0121
ltoes -17.7933
